HIERARCHY
ROOT joint_Root
{
	OFFSET 0.0 0.0 0.0
	CHANNELS 6 Xposition Yposition Zposition Zrotation Xrotation Yrotation 
	JOINT Hips
	{
		OFFSET 4.5925 91.4895 -427.239
		CHANNELS 6 Xposition Yposition Zposition Zrotation Xrotation Yrotation 
		JOINT Spine
		{
			OFFSET 15.7357 0.0 0.0
			CHANNELS 6 Xposition Yposition Zposition Zrotation Xrotation Yrotation 
			JOINT Chest
			{
				OFFSET 8.98455 -0.406207 0.0
				CHANNELS 6 Xposition Yposition Zposition Zrotation Xrotation Yrotation 
				JOINT Neck
				{
					OFFSET 16.3773 0.0 0.0
					CHANNELS 6 Xposition Yposition Zposition Zrotation Xrotation Yrotation 
					JOINT Head
					{
						OFFSET 6.45672 0.0 0.0
						CHANNELS 6 Xposition Yposition Zposition Zrotation Xrotation Yrotation 
						End Site
						{
							OFFSET 0.0 0.0 0.0
						}
					}
				}
				JOINT Shoulder_L
				{
					OFFSET 12.9942 -0.242716 4.98039
					CHANNELS 6 Xposition Yposition Zposition Zrotation Xrotation Yrotation 
					JOINT UpperArm_L
					{
						OFFSET 5.34809 0.0 0.0
						CHANNELS 6 Xposition Yposition Zposition Zrotation Xrotation Yrotation 
						JOINT LowerArm_L
						{
							OFFSET 24.3286 1.87007e-05 0.0
							CHANNELS 6 Xposition Yposition Zposition Zrotation Xrotation Yrotation 
							JOINT Hand_L
							{
								OFFSET 22.2916 0.0 0.0
								CHANNELS 6 Xposition Yposition Zposition Zrotation Xrotation Yrotation 
								End Site
								{
									OFFSET 0.0 0.0 0.0
								}
							}
						}
					}
				}
				JOINT Shoulder_R
				{
					OFFSET 12.9945 -0.242716 -4.98039
					CHANNELS 6 Xposition Yposition Zposition Zrotation Xrotation Yrotation 
					JOINT UpperArm_R
					{
						OFFSET -5.34813 0.0 0.0
						CHANNELS 6 Xposition Yposition Zposition Zrotation Xrotation Yrotation 
						JOINT LowerArm_R
						{
							OFFSET -24.3289 0.000322201 0.0
							CHANNELS 6 Xposition Yposition Zposition Zrotation Xrotation Yrotation 
							JOINT Hand_R
							{
								OFFSET -22.2915 -0.000108084 0.0
								CHANNELS 6 Xposition Yposition Zposition Zrotation Xrotation Yrotation 
								End Site
								{
									OFFSET 0.0 0.0 0.0
								}
							}
						}
					}
				}
			}
		}
		JOINT UpperLeg_L
		{
			OFFSET -2.19248 -6.46944 0.0
			CHANNELS 6 Xposition Yposition Zposition Zrotation Xrotation Yrotation 
			JOINT LowerLeg_L
			{
				OFFSET 39.0811 0.0 -1.23785e-05
				CHANNELS 6 Xposition Yposition Zposition Zrotation Xrotation Yrotation 
				JOINT Foot_L
				{
					OFFSET 40.9854 0.0 -1.26872e-05
					CHANNELS 6 Xposition Yposition Zposition Zrotation Xrotation Yrotation 
					JOINT Toes_L
					{
						OFFSET 11.7543 0.0 0.0
						CHANNELS 6 Xposition Yposition Zposition Zrotation Xrotation Yrotation 
						End Site
						{
							OFFSET 0.0 0.0 0.0
						}
					}
				}
			}
		}
		JOINT UpperLeg_R
		{
			OFFSET -2.19251 6.46944 0.0
			CHANNELS 6 Xposition Yposition Zposition Zrotation Xrotation Yrotation 
			JOINT LowerLeg_R
			{
				OFFSET -39.0811 -0.00228153 -0.0401928
				CHANNELS 6 Xposition Yposition Zposition Zrotation Xrotation Yrotation 
				JOINT Foot_R
				{
					OFFSET -40.9854 0.0 0.0
					CHANNELS 6 Xposition Yposition Zposition Zrotation Xrotation Yrotation 
					JOINT Toes_R
					{
						OFFSET -11.7543 0.0 0.0
						CHANNELS 6 Xposition Yposition Zposition Zrotation Xrotation Yrotation 
						End Site
						{
							OFFSET 0.0 0.0 0.0
						}
					}
				}
			}
		}
	}
}
MOTION
Frames:	5
Frame Time:	0.0333333
0.000000 0.000000 0.000000 0.000000 0.000000 -0.000000 -0.913540 83.433900 0.478231 88.302000 -4.184800 17.608900 15.735700 0.000005 -0.000001 87.637900 78.850100 -87.317200 8.984550 -0.406207 -0.000000 14.518700 -0.888911 0.755042 16.377300 -0.000001 -0.000001 0.075824 -2.456780 0.432621 6.456720 -0.000001 -0.000000 -7.310440 -1.794480 0.313881 12.994200 -0.242716 4.980390 -91.088900 3.452110 -72.480600 5.348090 -0.000007 -0.000001 -73.721200 12.605300 -23.621800 24.328600 0.000019 0.000005 1.704240 9.312370 -10.428000 22.291600 -0.000001 0.000005 24.817000 5.101840 5.081220 12.994500 -0.242716 -4.980390 88.256300 10.186500 -80.232400 -5.348130 -0.000001 -0.000004 -66.158200 3.962230 -27.622200 -24.328900 0.000322 -0.000009 -2.457970 -12.476500 -11.230200 -22.291500 -0.000108 -0.000004 10.421600 5.268810 0.933813 -2.192480 -6.469440 -0.000000 -170.274000 -13.162700 -5.112350 39.081100 -0.000007 -0.000012 -0.485174 0.298248 58.421000 40.985400 -0.000006 -0.000013 1.197510 5.685350 -84.893800 11.754300 -0.000000 0.000003 -0.000364 -0.003054 -16.690600 -2.192510 6.469440 -0.000001 176.339000 12.385500 174.333000 -39.081100 -0.002282 -0.040193 0.068849 -0.040629 58.243300 -40.985400 0.000008 0.000006 7.256050 5.355210 -84.533500 -11.754300 -0.000006 -0.000006 -0.819293 -1.013740 -16.745400
0.000000 0.000000 0.000000 0.000000 0.000000 -0.000000 -0.831840 86.055300 1.666260 88.533400 -3.476640 16.464600 15.735700 0.000005 -0.000001 87.394000 81.035000 -87.149200 8.984550 -0.406207 -0.000000 10.147900 -0.804871 0.560889 16.377300 -0.000001 -0.000001 3.708520 -2.090020 0.319258 6.456720 -0.000001 -0.000000 -3.997370 -0.981661 0.549451 12.994200 -0.242716 4.980390 -90.773500 2.274870 -71.211700 5.348090 -0.000007 -0.000001 -69.350100 0.476923 -24.298400 24.328600 0.000019 0.000005 1.842360 12.497900 -8.454310 22.291600 -0.000001 0.000005 25.534300 4.945030 8.445520 12.994500 -0.242716 -4.980390 88.270400 8.460750 -78.400300 -5.348130 -0.000001 -0.000004 -63.391500 -9.028110 -29.403800 -24.328900 0.000322 -0.000009 -2.300100 -14.238900 -9.271350 -22.291500 -0.000108 -0.000004 13.982200 5.220250 2.200820 -2.192480 -6.469440 -0.000000 -170.653000 -13.532600 -1.230530 39.081100 -0.000007 -0.000012 -0.392532 0.331705 49.801700 40.985400 -0.000006 -0.000013 1.215820 6.625050 -81.355200 11.754300 -0.000000 0.000003 -0.000256 -0.002280 -16.662900 -2.192510 6.469440 -0.000001 174.416000 15.879400 178.528000 -39.081100 -0.002282 -0.040193 0.047493 -0.037208 49.937400 -40.985400 0.000008 0.000006 7.641870 9.186680 -81.069000 -11.754300 -0.000006 -0.000006 -0.673838 -0.826637 -17.300400
0.000000 0.000000 0.000000 0.000000 0.000000 -0.000000 -0.732009 88.429100 2.309250 88.861900 -3.151880 12.613300 15.735700 0.000005 -0.000001 85.900700 84.228600 -85.709500 8.984550 -0.406207 -0.000000 3.749040 -0.830737 0.409357 16.377300 -0.000001 -0.000001 8.396050 -1.624000 0.282780 6.456720 -0.000001 -0.000000 -1.826520 -0.689554 0.638310 12.994200 -0.242716 4.980390 -90.244500 0.673232 -70.025700 5.348090 -0.000007 -0.000001 -64.705600 -17.064400 -28.377500 24.328600 0.000019 0.000005 1.834760 9.369290 -11.136800 22.291600 -0.000001 0.000005 26.829600 4.836310 10.626100 12.994500 -0.242716 -4.980390 88.630300 5.855960 -76.808200 -5.348130 -0.000001 -0.000004 -60.544600 -21.619400 -36.345800 -24.328900 0.000322 -0.000009 -4.467340 -21.545600 -12.005000 -22.291500 -0.000108 -0.000004 17.984700 5.207140 2.539760 -2.192480 -6.469440 -0.000000 -171.809000 -14.814900 -0.360203 39.081100 -0.000007 -0.000012 -0.263217 0.304453 40.845900 40.985400 -0.000006 -0.000013 1.104990 7.521140 -77.173300 11.754300 -0.000000 0.000003 -0.000146 -0.001424 -16.631700 -2.192510 6.469440 -0.000001 173.953000 18.672500 179.134000 -39.081100 -0.002282 -0.040193 0.026786 -0.026356 41.736500 -40.985400 0.000008 0.000006 6.939270 12.498100 -76.423700 -11.754300 -0.000006 -0.000006 -0.656364 -0.800292 -18.152900
0.000000 0.000000 0.000000 0.000000 0.000000 -0.000000 -0.599621 89.908700 2.735520 89.116200 -3.322720 9.775950 15.735700 0.000005 -0.000001 86.410800 86.484800 -86.270000 8.984550 -0.406207 -0.000000 -0.748954 -0.450490 0.278505 16.377300 -0.000001 -0.000001 10.724700 -1.661760 0.807127 6.456720 -0.000001 -0.000000 -0.563474 -1.182250 0.536005 12.994200 -0.242716 4.980390 -89.509500 -1.259920 -68.732200 5.348090 -0.000007 -0.000001 -59.722600 -28.908800 -39.873800 24.328600 0.000019 0.000005 2.778770 10.256500 -15.244100 22.291600 -0.000001 0.000005 25.810000 4.840200 10.546800 12.994500 -0.242716 -4.980390 89.291900 2.896560 -76.258100 -5.348130 -0.000001 -0.000004 -57.111100 -31.149300 -48.579100 -24.328900 0.000322 -0.000009 -6.114500 -21.898600 -16.022400 -22.291500 -0.000108 -0.000004 18.606000 5.265680 1.023910 -2.192480 -6.469440 -0.000000 -172.554000 -16.439800 0.452511 39.081100 -0.000007 -0.000012 -0.182811 0.270241 34.077700 40.985400 -0.000006 -0.000013 1.070020 8.606530 -74.039000 11.754300 -0.000000 0.000003 -0.000082 -0.000867 -16.611000 -2.192510 6.469440 -0.000001 174.140000 19.910500 179.259000 -39.081100 -0.002282 -0.040193 0.015359 -0.016667 35.910400 -40.985400 0.000008 0.000006 6.455010 14.248300 -72.980000 -11.754300 -0.000006 -0.000006 -0.790269 -0.953768 -18.715600
0.000000 0.000000 0.000000 0.000000 0.000000 -0.000000 -0.527621 90.465000 2.815760 89.044600 -3.108130 7.914390 15.735700 0.000005 -0.000001 88.316500 87.760200 -88.103000 8.984550 -0.406207 -0.000000 -3.288000 -0.152129 0.422639 16.377300 -0.000001 -0.000001 10.061000 -1.839200 0.959509 6.456720 -0.000001 -0.000000 0.232126 -1.761560 0.598876 12.994200 -0.242716 4.980390 -88.407200 -4.067840 -68.591500 5.348090 -0.000007 -0.000001 -51.524400 -35.532300 -50.906200 24.328600 0.000019 0.000005 3.593600 8.662090 -22.653100 22.291600 -0.000001 0.000005 23.373700 5.002750 7.237490 12.994500 -0.242716 -4.980390 90.359000 -1.510170 -76.622200 -5.348130 -0.000001 -0.000004 -54.155000 -39.701800 -61.170400 -24.328900 0.000322 -0.000009 -10.426200 -22.826700 -25.367600 -22.291500 -0.000108 -0.000004 19.997200 5.384070 -2.418700 -2.192480 -6.469440 -0.000000 -173.060000 -16.601100 -0.131624 39.081100 -0.000007 -0.000012 -0.162984 0.267430 31.360300 40.985400 -0.000006 -0.000013 1.016640 8.989130 -72.689300 11.754300 -0.000000 0.000003 -0.000066 -0.000718 -16.605300 -2.192510 6.469440 -0.000001 174.786000 20.377400 179.163000 -39.081100 -0.002282 -0.040193 0.008193 -0.007673 32.547100 -40.985400 0.000008 0.000006 6.474730 14.488600 -72.391500 -11.754300 -0.000006 -0.000006 -0.271716 -0.349466 -18.229100
